<svg xmlns="http://www.w3.org/2000/svg" viewBox="0 0 128 160" width="128" height="160">
  <g transform="translate(0,0)">
    <!-- Shadow -->
    <ellipse cx="64" cy="155" rx="24" ry="4" fill="#000" opacity="0.1"/>

    <!-- Legs -->
    <g>
      <!-- Left leg -->
      <rect x="48" y="118" width="10" height="20" rx="5" fill="#3d8a96"/>
      <ellipse cx="53" cy="140" rx="8" ry="5" fill="#2c3e50"/>
      <!-- Right leg -->
      <rect x="70" y="118" width="10" height="20" rx="5" fill="#3d8a96"/>
      <ellipse cx="75" cy="140" rx="8" ry="5" fill="#2c3e50"/>
    </g>

    <!-- Body / Torso (hoodie) -->
    <g transform="rotate(0, 64, 100)">
      <rect x="42" y="88" width="44" height="32" rx="10" fill="#53a8b6"/>
      <rect x="42" y="88" width="44" height="8" rx="4" fill="#3d8a96" opacity="0.3"/>
      <!-- Hoodie pocket -->
      <rect x="50" y="106" width="28" height="8" rx="4" fill="#3d8a96" opacity="0.2"/>
    </g>

    <!-- Arms -->
    <g>
      <!-- Left arm -->
      <path d="M42 92 Q30 100 28 110" stroke="#53a8b6" stroke-width="8" fill="none" stroke-linecap="round"/>
      <circle cx="28" cy="112" r="5" fill="#fde8d0"/>
      <!-- Right arm -->
      <path d="M86 92 Q98 100 100 110" stroke="#53a8b6" stroke-width="8" fill="none" stroke-linecap="round"/>
      <circle cx="100" cy="112" r="5" fill="#fde8d0"/>
    </g>

    <!-- Head -->
    <g transform="translate(0, 0)">
      <!-- Hair back -->
      <ellipse cx="64" cy="42" rx="34" ry="32" fill="#2c3e6b"/>
      <!-- Face -->
      <ellipse cx="64" cy="48" rx="30" ry="28" fill="#fde8d0"/>
      <!-- Hair front/bangs -->
      <path d="M34 40 Q44 20 64 18 Q84 20 94 40 Q88 30 76 28 Q64 24 52 28 Q40 30 34 40Z" fill="#2c3e6b"/>
      <!-- Hair tufts -->
      <path d="M56 18 Q58 10 64 8 Q70 10 72 18" fill="#2c3e6b" stroke="#2c3e6b" stroke-width="1"/>

      <!-- Eyes -->
      
  <path d="M46 50 Q52 46 58 50" stroke="#1a1a2e" stroke-width="2" fill="none" stroke-linecap="round"/>
  <path d="M70 50 Q76 46 82 50" stroke="#1a1a2e" stroke-width="2" fill="none" stroke-linecap="round"/>


      <!-- Mouth -->
      <line x1="58" y1="62" x2="70" y2="62" stroke="#1a1a2e" stroke-width="2" stroke-linecap="round"/>

      <!-- Blush -->
      <circle cx="42" cy="56" r="5" fill="#ff9999" opacity="0.25"/>
      <circle cx="86" cy="56" r="5" fill="#ff9999" opacity="0.25"/>
    </g>

    
  </g>
</svg>